<svg width="282" height="87" viewBox="0 0 282 87" fill="none" xmlns="http://www.w3.org/2000/svg">
<path fill-rule="evenodd" clip-rule="evenodd" d="M55.4225 0.105138C54.8001 0.172442 53.3062 0.277152 52.1027 0.337696C50.8993 0.39824 49.7575 0.507308 49.5654 0.57987C49.3733 0.652583 49.0703 0.712075 48.8922 0.712075C48.7141 0.712075 48.1836 0.860655 47.7131 1.04229C46.3266 1.57756 46.323 1.59259 46.4529 6.21238C46.513 8.35138 46.5561 10.203 46.5487 10.3269C46.5205 10.7975 46.8596 12.5411 47.1457 13.3969C47.5484 14.6019 48.6185 15.9345 49.754 16.6453C50.17 16.9058 50.1945 16.9752 50.1586 17.7936C50.1376 18.2729 49.9892 19.1677 49.829 19.7823C49.6686 20.3969 49.5374 21.1301 49.5374 21.4117C49.5374 21.6934 49.4373 22.2721 49.3149 22.698C49.1923 23.1239 48.9924 24.2159 48.8705 25.1248C48.7485 26.0337 48.5771 27.0135 48.4896 27.3021C48.4019 27.5909 48.3298 28.0303 48.3293 28.2786C48.3287 28.5271 48.2341 28.9102 48.119 29.1299C48.0039 29.3496 47.8605 29.8905 47.8004 30.3317C47.6687 31.3004 47.6132 31.6058 47.5089 31.9348C47.4653 32.0728 47.3606 32.8492 47.2764 33.6601C47.1922 34.4711 47.0564 35.259 46.9746 35.4112C46.8928 35.5634 46.7991 36.0493 46.7665 36.4908C46.7339 36.9323 46.6281 37.7687 46.5314 38.3493C46.4348 38.93 46.3322 39.6736 46.3032 40.0019C46.2487 40.6222 45.9101 42.8391 45.5374 45.0148C45.4186 45.7084 45.3595 46.3372 45.4058 46.4118C45.4521 46.4865 45.3851 47.0345 45.2567 47.6295C45.1283 48.2245 44.9839 49.2183 44.9358 49.838C44.8834 50.5112 44.729 51.1934 44.552 51.5328C44.3892 51.8451 44.256 52.1896 44.256 52.2982C44.256 52.4068 44.1201 52.6181 43.9542 52.7675C43.7882 52.917 43.6524 53.1491 43.6524 53.2831C43.6524 53.4173 43.5419 53.6841 43.4068 53.8761C42.7738 54.7759 42.9335 60.6547 43.5909 60.6547C43.71 60.6547 43.9788 61.0278 44.1882 61.4837C44.5108 62.1859 44.5795 62.5941 44.6367 64.1503C44.8597 70.2077 45.4281 75.4397 46.0153 76.8388C46.2234 77.3346 46.2702 77.3613 46.781 77.2788C47.0802 77.2305 47.3645 77.1361 47.4126 77.0693C47.4609 77.0024 47.8309 76.7802 48.235 76.5758C48.6393 76.3711 49.3268 75.8658 49.7629 75.4526C50.5523 74.7051 50.5563 74.6962 50.6432 73.5918C50.6912 72.9816 50.8334 72.0351 50.9589 71.4886C51.3457 69.8063 51.6307 68.1554 51.7917 66.664C52.1145 63.6753 52.4246 62.3216 52.8802 61.911C53.1571 61.6616 53.5377 61.5871 56.177 61.2662C56.7995 61.1906 57.886 61.0464 58.5914 60.9457C60.3745 60.6912 72.8675 60.6642 74.5114 60.9112C75.1753 61.0109 76.092 61.1352 76.5485 61.1875C78.2184 61.3784 80.884 62.2682 81.4393 62.8202C81.7244 63.1035 81.7161 63.1188 80.8685 63.8718C79.2214 65.3352 79.112 65.4091 76.9258 66.5384C75.9659 67.0343 75.9475 67.0426 73.8207 67.9297C72.7066 68.3946 71.5915 68.8655 71.3425 68.9766C70.9462 69.1532 69.9201 69.4785 68.0981 70.0047C67.8076 70.0887 67.2984 70.2459 66.9664 70.3539C66.391 70.5412 65.4664 70.6339 64.6093 70.5902C64.2752 70.5732 64.1844 70.4652 64.0238 69.894L63.8337 69.218H63.1086C62.7098 69.218 62.1924 69.2893 61.9588 69.3766C61.5548 69.5275 60.4117 70.2379 60.2513 70.4379C60.2098 70.4897 59.9382 70.6933 59.6477 70.8905C58.0521 71.9738 55.9664 74.1587 54.7906 75.9784C53.8971 77.3612 53.6117 78.1592 53.6117 79.2745C53.6117 80.1797 53.6528 80.3159 54.0267 80.6523C54.8591 81.4009 55.1485 81.4623 57.8225 81.4562C59.7457 81.4517 60.747 81.373 62.1376 81.117C63.1335 80.9335 64.5256 80.6799 65.231 80.5535C67.6026 80.128 70.8564 79.3104 71.838 78.8932C72.1105 78.7774 72.4308 78.6826 72.5497 78.6826C72.6686 78.6826 72.9888 78.5874 73.2613 78.4709C74.1045 78.1108 75.9697 77.3712 77.0767 76.9579C78.1763 76.5474 78.375 76.4674 79.2875 76.0689C79.5905 75.9365 79.8878 75.8282 79.948 75.8282C80.0083 75.8282 81.707 75.0182 83.7232 74.0281C85.9956 72.912 87.655 71.9985 88.0896 71.6241C88.475 71.2919 89.1257 70.8016 89.5354 70.5346C89.9451 70.2675 90.2804 69.9972 90.2804 69.934C90.2804 69.8707 90.3653 69.8186 90.469 69.8182C90.5728 69.8178 90.9161 69.5812 91.232 69.2923C91.5478 69.0036 91.8371 68.7673 91.8746 68.7673C92.0073 68.7673 94.9577 65.8361 94.958 65.704C94.9581 65.6306 95.0494 65.4954 95.1608 65.4036C95.2722 65.3119 95.5098 64.8863 95.6889 64.4579C96.1321 63.3975 96.1213 62.0792 95.6589 60.805C95.3251 59.8853 95.1677 59.5118 94.376 57.7628C94.1982 57.3704 93.9089 56.728 93.733 56.3356C93.557 55.9432 93.2175 55.3313 92.9785 54.976C92.7395 54.6207 92.5439 54.282 92.5439 54.2234C92.5439 54.1649 92.0108 53.5995 91.359 52.9674C90.5455 52.1779 89.868 51.6752 89.1971 51.3629C87.4371 50.5437 83.1792 49.6639 78.9629 49.2482C77.2209 49.0765 75.9449 48.8109 75.9449 48.6199C75.9449 48.5421 76.0978 48.4135 76.2844 48.334C76.4711 48.2546 77.2691 47.7722 78.0575 47.262C78.846 46.7517 79.8306 46.1545 80.2456 45.9348C80.6605 45.715 81.6791 45.1771 82.5091 44.739C83.339 44.3011 84.2687 43.7481 84.575 43.5101C84.8815 43.2723 85.1729 43.0776 85.2228 43.0776C85.2726 43.0776 85.3955 43.0068 85.4957 42.9203C85.5959 42.8337 86.0348 42.5005 86.4711 42.1798C86.9073 41.859 87.4658 41.4059 87.7124 41.1728C87.9588 40.9396 88.4384 40.5462 88.7779 40.2983C89.1174 40.0504 89.5265 39.7292 89.6869 39.5847C89.8473 39.4401 90.0144 39.3218 90.0581 39.3218C90.2522 39.3218 92.1241 37.5436 92.7876 36.7291C93.3349 36.0571 93.5619 35.2548 93.8185 33.0838C93.9551 31.9288 94.1389 30.443 94.2272 29.782C94.6601 26.5343 94.7697 22.6221 94.452 21.7383C94.2952 21.3019 93.7861 20.5373 92.8052 19.2659C92.7414 19.1831 92.2347 18.5071 91.6792 17.7634C90.6226 16.3491 87.1249 12.7473 85.8295 11.7396C85.4148 11.4172 84.8715 10.9641 84.6223 10.7329C84.373 10.5018 83.5239 9.82576 82.7354 9.23054C81.947 8.63547 81.2792 8.09794 81.2516 8.0359C81.2238 7.97385 81.1362 7.92322 81.0565 7.92322C80.977 7.92322 80.8298 7.85652 80.7296 7.77494C80.0827 7.24868 79.0877 6.57113 78.9616 6.57113C78.8793 6.57113 78.812 6.50803 78.812 6.43096C78.812 6.35389 78.6591 6.24453 78.4725 6.18789C78.2858 6.13125 78.0311 5.9977 77.9066 5.89118C77.5467 5.58321 75.1827 4.16742 75.0285 4.16742C74.9515 4.16742 74.8886 4.11679 74.8886 4.05474C74.8885 3.82158 70.9062 2.13568 69.2611 1.67221C68.8289 1.55052 68.2717 1.38902 68.0227 1.31346C64.7898 0.332289 58.7114 -0.250612 55.4225 0.105138ZM145.582 3.74932C142.676 3.80866 139.5 3.91157 138.523 3.97812C137.548 4.04453 136.698 4.04813 136.636 3.98594C136.573 3.92374 136.286 3.93426 135.999 4.00922C135.71 4.08419 133.472 4.17914 131.023 4.22015C128.575 4.26116 125.689 4.36527 124.61 4.4515C123.531 4.53774 121.867 4.6444 120.913 4.68857C119.959 4.73274 118.804 4.8361 118.348 4.91828C117.891 5.00045 116.288 5.131 114.784 5.20837C113.281 5.28574 111.379 5.42036 110.559 5.50749C108.133 5.76544 105.703 5.99094 104.012 6.11533C103.141 6.17933 102.048 6.31078 101.583 6.40738C101.118 6.50398 100.1 6.60974 99.3194 6.64219C98.5391 6.67479 97.2218 6.78011 96.3918 6.87641C95.5619 6.97256 94.5773 7.0657 94.2038 7.08327C93.8303 7.10085 93.2531 7.19069 92.9211 7.28293C92.5892 7.37518 91.7743 7.48274 91.1103 7.5221C90.0693 7.58385 88.9516 7.71335 86.8522 8.01547C86.2871 8.09674 85.9043 8.42575 85.9043 8.83017C85.9043 9.21101 86.9543 10.2204 88.2153 11.0518C88.7883 11.4296 88.7983 11.4305 90.2525 11.2468C91.0563 11.1451 92.0535 11.0084 92.4684 10.9429C92.8834 10.8774 94.0718 10.7111 95.1092 10.5735C96.1466 10.4357 97.5047 10.2482 98.1272 10.1566C98.7496 10.0649 99.8701 9.93904 100.617 9.87684C101.364 9.8145 102.552 9.68965 103.258 9.59951C103.963 9.50922 105.321 9.36035 106.276 9.2684C107.23 9.17661 108.996 9.00414 110.199 8.88531C113.689 8.54038 118.829 8.20175 127.251 7.76187C130.598 7.58715 156.515 7.52406 158.534 7.68571C159.131 7.73363 161.792 7.8406 164.448 7.92352C167.103 8.00645 170.159 8.14466 171.238 8.2306C172.317 8.31638 174.388 8.44753 175.841 8.5219C181.844 8.82912 188.61 9.40707 192.59 9.95286C193.545 10.0837 195.073 10.2524 195.986 10.3277C197.537 10.4555 199.71 10.748 201.644 11.0892C202.101 11.1696 203.018 11.2995 203.682 11.3778C204.346 11.4562 205.772 11.6595 206.85 11.8299C207.929 12.0001 209.491 12.2418 210.321 12.3671C211.151 12.4922 212.475 12.6967 213.264 12.8212C214.052 12.9459 215.139 13.1098 215.678 13.1857C216.218 13.2616 216.829 13.366 217.036 13.4177C217.244 13.4695 217.957 13.5999 218.621 13.7075C220.35 13.9878 223.62 14.6568 224.519 14.9144C224.941 15.0354 225.425 15.1344 225.595 15.1344C225.764 15.1344 226.131 15.2283 226.411 15.343C226.691 15.4578 227.277 15.5993 227.712 15.6576C228.148 15.7159 228.505 15.8247 228.505 15.8997C228.505 15.9745 228.647 16.0358 228.821 16.0358C229.197 16.0358 231.099 16.5774 231.772 16.8762C232.033 16.9923 232.361 17.0874 232.501 17.0874C232.775 17.0874 236.726 18.3486 237.506 18.685C237.767 18.7978 238.063 18.8902 238.162 18.8902C238.262 18.8902 238.557 18.9856 238.818 19.1023C239.08 19.219 239.701 19.4573 240.199 19.632C240.697 19.8066 241.241 20.0129 241.407 20.0904C241.572 20.1678 242.353 20.4733 243.142 20.7693C244.623 21.3251 245.179 21.576 248.122 23.0189C250.495 24.1826 251.285 24.6299 252.709 25.6167C254.915 27.1465 256.023 28.059 257.553 29.6083C259.343 31.421 260.589 33.0494 261.133 34.289C261.545 35.2252 261.856 36.9756 261.85 38.3185C261.846 39.0507 261.419 40.9875 261.113 41.6504C261.037 41.8156 260.821 42.2888 260.633 42.702C259.781 44.5739 257.067 47.6006 254.837 49.166C254.256 49.5739 253.758 49.9594 253.73 50.023C253.702 50.0865 253.619 50.1385 253.546 50.1385C253.472 50.1385 253.121 50.3327 252.766 50.5703C251.8 51.2163 250.35 52.1436 250.008 52.3343C249.842 52.4267 248.929 52.9508 247.978 53.4989C247.028 54.0468 246.171 54.4952 246.073 54.4952C245.975 54.4952 245.813 54.5933 245.713 54.7132C245.328 55.1753 241.634 56.8494 239.369 57.588C238.747 57.7912 238.102 58.0188 237.936 58.0939C237.77 58.1691 236.887 58.4815 235.974 58.7881C235.061 59.0946 234.246 59.3956 234.163 59.4569C234.08 59.5182 233.775 59.6178 233.484 59.6782C233.194 59.7386 232.881 59.8481 232.789 59.9215C232.697 59.9948 232.324 60.1177 231.959 60.1946C231.595 60.2715 230.821 60.4982 230.24 60.6985C229.237 61.0441 227.538 61.5228 223.449 62.6108C222.454 62.8758 221.416 63.1865 221.143 63.3009C220.871 63.4154 220.51 63.5092 220.342 63.5092C220.173 63.5092 219.683 63.6146 219.253 63.7435C217.957 64.1314 217.013 64.3835 215.98 64.6177C213.4 65.2023 212.209 65.461 211.377 65.6177C210.88 65.7114 210.031 65.8845 209.491 66.0023C208.952 66.12 208.091 66.2761 207.579 66.3491C207.067 66.4222 206.572 66.5279 206.481 66.5843C206.389 66.6407 205.586 66.7896 204.696 66.9154C203.806 67.0411 202.772 67.1964 202.399 67.2606C202.025 67.3249 200.905 67.5155 199.909 67.6844C198.913 67.8533 197.929 68.0335 197.721 68.0849C197.514 68.1363 196.868 68.2409 196.287 68.3175C193.944 68.6262 192.899 68.7701 191.459 68.9827C190.629 69.1052 189.067 69.3144 187.988 69.4477C186.909 69.5811 185.585 69.7561 185.045 69.8368C181.82 70.3187 178.097 70.7233 173.502 71.0912C172.008 71.2108 170.582 71.3444 170.333 71.3879C170.084 71.4315 169.099 71.5376 168.145 71.6233C166.571 71.765 165.251 71.8628 158.185 72.3607C150.516 72.9012 146.866 72.9932 133.159 72.9909C125.552 72.9897 117.801 72.918 115.933 72.8317C106.27 72.3847 97.3037 71.8832 93.9462 71.6022L91.8024 71.4226L89.6179 72.8901C88.4163 73.6973 87.3911 74.4671 87.3397 74.6006C87.1808 75.0132 87.671 75.1966 89.1971 75.2956C90.0003 75.3478 91.2348 75.4562 91.9403 75.5367C92.6458 75.6171 94.2076 75.7457 95.411 75.8223C97.8783 75.9798 100.953 76.2095 103.635 76.4371C104.631 76.5215 108.06 76.6892 111.255 76.8097C114.451 76.9302 118.797 77.1044 120.913 77.1971C125.412 77.3939 146.394 77.2772 151.146 77.0288C152.818 76.9416 155.409 76.8031 156.903 76.7212C158.397 76.6393 161.486 76.4742 163.769 76.3545C166.051 76.2346 168.156 76.1016 168.446 76.059C168.737 76.0161 170.095 75.9134 171.464 75.8305C174.168 75.6668 176.334 75.481 179.387 75.1507C180.466 75.0339 182.401 74.8337 183.687 74.7057C184.974 74.5778 186.705 74.4031 187.535 74.3178C188.365 74.2323 190.063 74.0658 191.308 73.9479C192.553 73.83 194.013 73.6652 194.552 73.5816C195.092 73.4981 196.28 73.3306 197.193 73.2095C198.106 73.0883 199.362 72.9126 199.985 72.8189C200.607 72.7253 201.558 72.5913 202.097 72.5211C202.637 72.451 203.961 72.2495 205.04 72.0734C206.119 71.8975 207.68 71.6615 208.51 71.5493C211.114 71.197 212.265 71.0163 212.811 70.8741C213.102 70.7984 213.781 70.6946 214.32 70.6435C215.246 70.5556 216.872 70.2849 218.394 69.9652C218.768 69.8868 219.379 69.7842 219.752 69.737C220.126 69.69 220.873 69.5524 221.412 69.4313C222.902 69.0969 231.494 67.3912 232.353 67.2596C232.768 67.1958 233.298 67.0697 233.532 66.9791C233.765 66.8885 234.16 66.8143 234.409 66.8143C234.658 66.8143 235.01 66.734 235.192 66.6359C235.373 66.5378 235.861 66.4059 236.276 66.3425C237.307 66.1854 239.496 65.7027 240.954 65.3112C242.039 65.0196 243.098 64.7628 244.651 64.4154C246.11 64.0886 247.933 63.5978 250.838 62.7494C252.782 62.1815 255.864 61.1093 256.221 60.8769C256.408 60.7548 256.752 60.6547 256.986 60.6547C257.219 60.6547 257.544 60.5634 257.708 60.4518C257.871 60.3401 258.195 60.2031 258.426 60.1471C258.657 60.0911 259.302 59.8367 259.86 59.5819C260.417 59.327 261.246 58.9535 261.703 58.7519C262.767 58.2818 264.171 57.5968 264.268 57.4999C264.35 57.4187 264.707 57.2248 266.682 56.1915C267.388 55.8224 268.288 55.2898 268.682 55.0078C269.076 54.7258 269.467 54.4952 269.55 54.4952C269.632 54.4952 269.7 54.4242 269.7 54.3372C269.7 54.2502 269.904 54.1084 270.153 54.022C270.402 53.9356 270.606 53.8112 270.606 53.7457C270.606 53.6801 270.758 53.5878 270.945 53.5405C271.132 53.4933 271.498 53.2662 271.759 53.036C272.019 52.8057 272.782 52.22 273.453 51.7343C274.125 51.2486 274.637 50.7921 274.593 50.7202C274.548 50.6481 274.632 50.5892 274.779 50.5892C274.927 50.5892 275.186 50.4347 275.354 50.2459C275.523 50.0572 276 49.6348 276.415 49.3072C278.607 47.5776 280.562 44.9664 281.387 42.6664C282.334 40.0276 282.163 35.7222 281.013 33.2374C280.86 32.9068 280.594 32.3322 280.423 31.9604C279.881 30.7886 279.391 30.0066 278.554 28.9774C277.71 27.9393 276.388 26.552 276.242 26.552C276.196 26.552 275.83 26.2588 275.43 25.9005C275.03 25.542 274.256 24.9546 273.71 24.5949C273.165 24.2353 272.718 23.8862 272.718 23.8193C272.718 23.7523 272.637 23.6976 272.537 23.6976C272.438 23.6976 271.901 23.3934 271.344 23.0216C270.788 22.6497 270.298 22.3455 270.256 22.3455C270.214 22.3455 269.817 22.107 269.374 21.8154C268.931 21.5238 267.618 20.8222 266.456 20.2565C264.548 19.3275 263.987 19.0652 262.132 18.2353C261.829 18.0998 261.512 17.9888 261.428 17.9888C261.343 17.9888 261.082 17.8916 260.847 17.7726C260.095 17.3922 259.324 17.0874 259.114 17.0878C259.002 17.088 258.605 16.9411 258.232 16.7614C257.389 16.3558 257.206 16.2857 255.893 15.8698C255.312 15.6857 254.769 15.4891 254.686 15.4327C254.603 15.3764 253.313 14.9412 251.819 14.4657C250.325 13.9901 248.846 13.5066 248.534 13.3912C248.221 13.2757 247.793 13.1814 247.583 13.1814C247.373 13.1814 247.003 13.0792 246.761 12.9545C246.518 12.8297 246.267 12.741 246.202 12.7572C246.025 12.8017 244.31 12.423 244.028 12.2773C243.893 12.2074 243.52 12.1088 243.198 12.0584C242.38 11.9296 240.181 11.4046 239.369 11.1442C238.996 11.0245 238.449 10.9267 238.155 10.9271C237.86 10.9276 237.554 10.8634 237.475 10.7845C237.396 10.7057 236.72 10.5419 235.974 10.4208C235.227 10.2996 234.31 10.1313 233.937 10.0469C232.968 9.82787 231.465 9.56812 230.24 9.40767C229.659 9.33165 229.082 9.22889 228.957 9.17931C228.833 9.12989 228.166 9.06003 227.476 9.02442C226.785 8.98882 226.039 8.89087 225.817 8.80674C225.291 8.60768 219.625 7.89318 216.848 7.67579C216.204 7.62531 215.678 7.5212 215.678 7.44428C215.678 7.36752 215.61 7.34648 215.527 7.39756C215.444 7.44879 214.816 7.3902 214.131 7.26746C213.447 7.14487 212.195 6.9685 211.351 6.87565C210.507 6.78281 209.59 6.64234 209.314 6.56347C209.038 6.48475 208.286 6.46387 207.643 6.51735C206.654 6.59938 206.473 6.57909 206.473 6.38574C206.473 6.20441 206.2 6.14132 205.153 6.08017C203.365 5.97591 200.324 5.7055 197.947 5.43943C193.707 4.9647 192.762 4.88132 191.3 4.85278C190.466 4.83655 189.718 4.78292 189.638 4.73364C189.558 4.68452 188.272 4.60054 186.779 4.54721C185.286 4.49387 183.352 4.3866 182.48 4.30893C181.609 4.23126 180.109 4.16757 179.148 4.16757C178.186 4.16742 177.358 4.12535 177.306 4.07412C177.184 3.95258 175.788 3.92554 163.693 3.80957C158.132 3.75623 152.972 3.69659 152.225 3.67706C151.478 3.65753 148.489 3.69013 145.582 3.74932ZM32.4028 3.85539C32.324 3.9317 31.9199 4.0606 31.5049 4.14188C30.8289 4.27423 27.8464 5.34899 26.6761 5.88187C25.6296 6.3584 24.833 6.75607 24.3372 7.04947C24.0467 7.22134 23.2869 7.62831 22.6489 7.95402C22.0108 8.27972 21.4082 8.64268 21.31 8.76047C21.2118 8.8784 21.0737 8.97485 21.0034 8.97485C20.8626 8.97485 19.5261 9.85701 19.2834 10.1102C19.1997 10.1974 18.8595 10.4668 18.5275 10.7085C17.6345 11.3589 17.2269 11.6993 16.6908 12.2424C16.4258 12.511 16.163 12.7307 16.1068 12.7307C16.0507 12.7307 15.8283 12.8827 15.6125 13.0687C14.9915 13.6037 9.54901 19.0413 9.54901 19.1268C9.54901 19.1692 9.31633 19.4543 9.03188 19.7606C8.74743 20.0668 8.33095 20.5878 8.10626 20.9183C7.88172 21.2488 7.50326 21.718 7.2653 21.9609C7.02748 22.2039 6.83282 22.4761 6.83282 22.5659C6.83282 22.6558 6.6291 22.9513 6.38012 23.2227C6.13113 23.494 5.92742 23.839 5.92742 23.9889C5.92742 24.139 5.82662 24.3451 5.70333 24.4468C5.5802 24.5487 5.33046 24.9288 5.14848 25.2916C4.96649 25.6542 4.76172 25.9511 4.69351 25.9511C4.62515 25.9511 4.56932 26.0231 4.56932 26.1109C4.56932 26.2929 3.98579 27.5189 3.44738 28.4679C3.24804 28.8193 2.96586 29.4278 2.82024 29.82C2.67477 30.2123 2.50803 30.6008 2.44978 30.6834C2.39153 30.766 2.1599 31.3745 1.93506 32.0355C1.71037 32.6965 1.46214 33.3726 1.38352 33.5378C1.02091 34.3002 0.41354 36.8904 0.168026 38.7208C-0.16501 41.2027 0.033877 48.618 0.442363 48.9554C0.55433 49.0479 0.646831 49.2674 0.647736 49.4432C0.650151 49.84 1.34278 52.3591 1.5142 52.5948C1.58347 52.6899 1.7656 53.1394 1.91922 53.5938C2.07283 54.0483 2.29058 54.5268 2.40315 54.6573C2.51558 54.7877 2.60762 54.9386 2.60762 54.9923C2.60762 55.1384 3.67735 56.7757 3.99334 57.1133C4.14424 57.2745 4.26752 57.4594 4.26752 57.5245C4.26752 57.6874 6.82497 60.2312 7.2656 60.5066C7.46222 60.6293 7.88595 60.9157 8.20736 61.143C8.52893 61.3703 8.84492 61.5561 8.9098 61.5561C8.97469 61.5561 9.3886 61.7927 9.82968 62.0819C10.2708 62.3711 10.7576 62.6078 10.9113 62.6078C11.0653 62.6078 11.2282 62.6676 11.2736 62.7407C11.3191 62.8139 12.087 63.1654 12.9802 63.5219C13.8733 63.8786 14.7739 64.2578 14.9814 64.3646C15.1889 64.4715 15.464 64.5593 15.5925 64.5599C15.7213 64.5603 15.8918 64.6258 15.9715 64.7051C16.0513 64.7846 16.8627 65.1285 17.7747 65.4695C18.6867 65.8104 19.5009 66.1399 19.5838 66.2018C19.6668 66.2637 20.1115 66.4288 20.5719 66.5686C21.4541 66.8368 22.9243 67.412 23.2432 67.6139C23.5605 67.815 23.4556 68.1688 22.931 68.6671C21.5469 69.9818 18.3026 72.5231 18.0083 72.5231C17.9205 72.5231 17.8485 72.5781 17.8485 72.6454C17.8485 72.7569 16.2281 73.9982 14.5287 75.1888C14.1552 75.4505 13.2725 75.9548 12.567 76.3097C11.8616 76.6645 11.2504 76.9895 11.2089 77.0317C11.1262 77.1157 9.97153 77.6164 9.02086 77.9803C7.90647 78.4069 6.54505 78.5605 5.39927 78.3884C4.81831 78.3012 4.05852 78.1879 3.711 78.1367C3.18738 78.0594 3.00132 78.1047 2.62528 78.4006C2.25437 78.6925 2.17016 78.8722 2.16322 79.3855C2.15824 79.7655 2.24848 80.1064 2.39199 80.2494C2.52252 80.3792 2.58514 80.4854 2.53142 80.4854C2.47755 80.4854 2.65878 80.6712 2.93417 80.8985C3.20941 81.1258 3.59949 81.5038 3.80079 81.7388C4.00224 81.9737 4.41027 82.328 4.70769 82.5261C5.00512 82.7243 5.58789 83.1547 6.00287 83.4825C7.58852 84.7355 9.35752 85.8418 10.2281 86.125C10.726 86.2871 11.2014 86.4939 11.2844 86.5848C11.3674 86.6757 12.1483 86.827 13.0197 86.9209C15.4911 87.1874 17.0911 86.8282 21.0928 85.1083C23.1513 84.2238 28.7338 81.5501 28.8642 81.3865C28.9057 81.3345 29.3471 81.0597 29.845 80.7759C32.1897 79.4399 33.46 78.6446 33.5873 78.4328C33.6537 78.3222 33.7781 78.2319 33.8636 78.2319C34.0283 78.2319 35.3929 77.1846 35.4786 76.9925C35.5063 76.9304 35.6195 76.8798 35.7301 76.8798C35.8407 76.8798 35.9539 76.8232 35.9817 76.7541C36.0093 76.685 36.4054 76.3016 36.8619 75.9021C37.9233 74.9731 38.5397 74.0589 38.9635 72.7858C39.4578 71.3002 39.3052 69.7819 38.3781 66.9645C38.2013 66.4274 37.888 65.4472 37.6817 64.7861C37.4754 64.1251 37.1902 63.2124 37.0479 62.758C36.6977 61.6388 35.9296 60.3457 35.154 59.5693C34.5727 58.9876 32.5904 57.8003 32.2001 57.8003C32.1128 57.8003 31.683 57.6378 31.2449 57.4392C30.807 57.2406 30.0412 56.8938 29.5432 56.6688C29.0453 56.4436 27.8076 55.8625 26.7929 55.3774C25.7783 54.8921 24.9008 54.4952 24.8432 54.4952C24.7854 54.4952 24.631 54.3995 24.5 54.2826C24.3689 54.1658 23.4129 53.6302 22.3755 53.0925C21.3381 52.5548 20.1837 51.9426 19.8102 51.7318C19.4367 51.5212 18.8138 51.1794 18.426 50.9724C18.0382 50.7654 17.3751 50.2462 16.9526 49.8188C16.3015 49.1602 16.124 48.8493 15.7896 47.7818C15.1976 45.8914 15.3051 44.7929 16.273 42.8373C16.9375 41.4946 18.065 39.7028 19.005 38.4955C19.4764 37.8902 20.9136 36.4687 21.0551 36.4679C21.1174 36.4677 21.1718 36.3829 21.176 36.2796C21.1831 36.1066 23.8858 33.76 24.2257 33.6317C24.3078 33.6008 24.4901 33.4656 24.6308 33.3312C24.859 33.1136 25.0863 32.93 26.2234 32.045C27.2491 31.2468 27.9615 30.7585 28.1006 30.7585C28.1886 30.7585 28.2606 30.6968 28.2606 30.6212C28.2606 30.4352 29.5876 29.6198 31.021 28.9249C31.6679 28.6114 32.2234 28.3548 32.2555 28.3548C32.2875 28.3548 32.7769 28.1466 33.3429 27.8919C35.1514 27.0786 35.2658 27.0328 35.9346 26.8559C36.296 26.7604 36.6821 26.7168 36.7929 26.759C37.0493 26.857 37.3126 27.794 37.3137 28.6125C37.3141 28.9607 37.4178 29.5484 37.5439 29.9184C37.6701 30.2884 37.8371 31.0513 37.9152 31.6138C38.2556 34.0702 38.4222 34.9049 38.6164 35.1271C38.7303 35.2575 38.8236 35.4411 38.8236 35.535C38.8236 35.8188 39.4166 36.0428 39.8924 35.9388C40.1385 35.885 40.5419 35.6717 40.7889 35.4647C41.1888 35.1298 41.2383 34.9954 41.241 34.2381C41.2425 33.7702 41.3421 32.8468 41.462 32.1857C41.582 31.5247 41.6825 30.6667 41.6854 30.2791C41.6882 29.8915 41.7515 29.537 41.8257 29.4913C41.9001 29.4455 42.0065 28.85 42.0622 28.1679C42.1179 27.4857 42.2577 26.4206 42.373 25.8009C42.8112 23.4452 43.3506 18.4357 43.3506 16.7217C43.3506 15.4246 43.22 15.244 41.7166 14.4604C39.8227 13.4733 38.4346 11.8127 37.5705 9.50066C37.1899 8.48209 36.4092 5.88652 36.4092 5.63969C36.4092 5.51124 36.3073 5.32195 36.1828 5.21904C36.0583 5.11613 35.9565 4.95388 35.9565 4.85849C35.9565 4.76309 35.7565 4.46713 35.5122 4.20092C35.0797 3.72934 35.0351 3.71672 33.8071 3.71672C33.1135 3.71672 32.4816 3.77907 32.4028 3.85539ZM138.568 12.1297C138.361 12.1958 137.973 12.2567 137.706 12.2649C137.439 12.2732 136.93 12.3731 136.574 12.4871C136.219 12.601 135.554 12.8068 135.098 12.9446C134.298 13.1859 132.933 13.6728 132.306 13.9405C132.14 14.0112 131.597 14.2358 131.099 14.4394C130.278 14.7747 127.921 15.9545 125.968 17.0072C125.553 17.2309 125.078 17.5333 124.912 17.679C124.746 17.8247 124.508 17.9876 124.384 18.0408C123.998 18.2057 120.86 20.5439 120.787 20.7211C120.76 20.7882 120.672 20.8432 120.592 20.8432C120.513 20.8432 120.341 20.9278 120.211 21.031C119.795 21.3609 117.84 23.3271 117.246 24.0123C116.931 24.3764 116.555 24.8093 116.41 24.9746C115.817 25.6523 115.028 26.6638 115.028 26.7466C115.028 26.7951 114.579 27.498 114.031 28.3085C112.951 29.9036 112.356 31.0081 111.94 32.1857C111.794 32.5989 111.585 33.1397 111.476 33.3876C111.032 34.3967 109.913 38.9716 109.599 41.0628C109.287 43.1404 109.81 45.5738 110.663 46.0128C112.151 46.779 115.973 45.3881 117.72 43.4447C118.08 43.0445 118.725 42.4577 119.153 42.1407C120.443 41.1867 120.854 40.8447 121.923 39.836C122.486 39.3054 122.998 38.8711 123.062 38.8711C123.125 38.8711 123.177 38.7359 123.177 38.5706C123.177 38.0808 122.345 38.1977 120.989 38.8781C119.618 39.5656 119.36 39.7127 118.699 40.1856C118.075 40.6316 117.951 40.613 117.839 40.057C117.608 38.9091 118.096 36.9724 119.084 35.1153C119.604 34.1381 119.7 33.9706 120.524 32.6125C121.896 30.3523 124.712 26.3504 125.777 25.1487C126.94 23.836 129.641 21.3145 130.63 20.6178C130.865 20.4526 131.135 20.2498 131.231 20.1672C132.437 19.1251 135.893 17.3868 137.397 17.0658C138.436 16.8439 139.69 16.9643 140.093 17.3249C140.379 17.5809 140.405 17.7226 140.329 18.5897C140.248 19.5258 139.974 20.5558 139.552 21.5192C139.444 21.7671 139.28 22.139 139.188 22.3455C139.097 22.5521 138.744 23.5662 138.404 24.599C137.691 26.7641 137.122 28.0294 136.242 29.4064C135.898 29.9435 135.537 30.5182 135.439 30.6834C135.342 30.8487 134.894 31.5923 134.444 32.336C133.46 33.9631 133.041 34.7204 131.664 37.3687C131.083 38.4842 130.466 39.6335 130.292 39.9227C130.117 40.2119 129.842 40.6895 129.68 40.9839C128.996 42.2288 127.157 44.8455 126.223 45.9043C126.054 46.0957 125.558 46.721 125.12 47.294C124.683 47.867 124.27 48.3357 124.203 48.3357C124.137 48.3357 124.082 48.4371 124.082 48.561C124.082 48.685 124.005 48.7864 123.91 48.7864C123.815 48.7864 123.663 48.8831 123.57 49.0014C123.478 49.1196 122.434 49.7031 121.249 50.2982C120.065 50.8934 119.059 51.4389 119.014 51.5106C118.97 51.5822 118.829 51.6408 118.7 51.6408C118.572 51.6408 118.165 51.8436 117.796 52.0915C117.427 52.3394 117.084 52.5422 117.033 52.5422C116.982 52.5422 116.598 52.7618 116.179 53.0305C115.76 53.2991 115.299 53.5863 115.154 53.6689C115.01 53.7516 114.41 54.1234 113.821 54.4952C113.232 54.867 112.635 55.239 112.493 55.3216C110.18 56.6758 108.446 58.0452 106.122 60.3543C102.965 63.4895 102.706 63.9573 102.253 67.3401C102.162 68.0232 102.383 68.3656 103.258 68.8965C103.672 69.1475 104.029 69.2169 104.909 69.2174C105.895 69.218 106.172 69.1507 107.173 68.6675C107.8 68.3648 108.336 68.0606 108.363 67.9915C108.391 67.9224 108.487 67.8659 108.576 67.8659C108.732 67.8659 111.048 66.347 111.882 65.6983C112.102 65.5272 112.507 65.218 112.783 65.0115C113.704 64.321 115.241 62.9656 116.677 61.5784C117.459 60.8226 118.111 60.204 118.126 60.204C118.157 60.204 121.661 56.6664 123.008 55.2752C123.513 54.7541 123.978 54.2392 124.042 54.1312C124.284 53.7203 126.042 51.8208 127.934 49.9276C129.832 48.0274 130.17 47.7867 131.476 47.4065C131.767 47.3221 132.072 47.2019 132.155 47.1396C132.238 47.0772 132.849 46.8425 133.513 46.6179C134.826 46.1739 136.406 45.5777 137.158 45.2426C137.419 45.126 137.691 45.0301 137.761 45.0297C137.832 45.0291 138.091 44.9238 138.339 44.7955C138.779 44.5668 138.796 44.5721 139.202 45.0593C139.43 45.3327 139.697 45.793 139.795 46.0822C140.314 47.6188 141.867 49.092 143.827 49.9068C144.618 50.2357 145.015 50.3048 146.107 50.303C147.488 50.3009 148.265 50.0889 149.509 49.3755C150.091 49.0421 151.995 47.7541 152.149 47.5896C152.191 47.5455 152.333 47.4418 152.466 47.3592C152.917 47.0789 154.011 46.3471 154.175 46.2165C154.977 45.5762 155.461 45.2301 156.903 44.2646C158.821 42.9805 159.352 42.6865 159.495 42.8288C159.551 42.885 159.463 43.1162 159.298 43.3423C158.935 43.842 158.336 45.2196 158.336 45.5549C158.336 45.6888 158.189 46.1157 158.01 46.5036C157.237 48.1749 157.911 50.3526 159.448 51.1435C160.169 51.5149 162.621 51.3187 164.332 50.7526C165.501 50.3659 168.237 49.1614 168.446 48.9408C168.488 48.8973 168.794 48.7296 169.126 48.5683C169.458 48.4071 170.157 47.9845 170.679 47.6293C171.202 47.2742 171.668 46.9836 171.715 46.9836C171.763 46.9836 172.252 46.6866 172.802 46.3236C174.726 45.0555 175.648 44.6849 176.052 45.018C176.161 45.1083 176.505 45.6883 176.816 46.3068C177.614 47.8928 178.802 49.058 180.073 49.5015C180.609 49.6882 181.258 49.8404 181.517 49.8395C182.074 49.8377 184.075 49.2122 184.327 48.9611C184.423 48.865 184.589 48.7864 184.695 48.7864C184.801 48.7864 185.396 48.5498 186.016 48.2606C186.636 47.9714 187.215 47.7348 187.302 47.7348C187.389 47.7348 187.46 47.6672 187.46 47.5845C187.46 47.5019 187.538 47.4343 187.632 47.4343C187.772 47.4343 188.955 46.7823 190.629 45.7824C190.753 45.708 191.263 45.432 191.76 45.1691C192.258 44.906 193.039 44.4861 193.496 44.236C194.352 43.7667 194.418 43.7339 195.307 43.336C195.597 43.206 195.988 43.0247 196.174 42.933C197.029 42.514 196.316 43.3635 193.337 46.3149C190.383 49.2407 187.913 52.0041 187.913 52.3811C187.913 52.4698 187.857 52.5422 187.788 52.5422C187.72 52.5422 187.397 52.9188 187.071 53.3791C186.745 53.8396 186.406 54.2959 186.318 54.3932C186.229 54.4907 185.895 54.9422 185.575 55.3966C185.255 55.8511 184.639 56.6961 184.206 57.2745C182.906 59.0103 182.568 59.7861 182.561 61.0548C182.557 61.9227 182.628 62.2768 182.91 62.791C183.344 63.582 184.251 64.2603 184.876 64.2603C185.451 64.2603 186.639 63.6226 187.22 63.0018C187.462 62.7439 187.88 62.3974 188.149 62.2322C188.879 61.784 189.876 60.9094 191.664 59.1497C192.547 58.2806 193.451 57.4356 193.674 57.2718C194.895 56.3725 197.359 54.4088 197.452 54.2607C197.512 54.1661 197.953 53.7914 198.433 53.4281C198.913 53.0647 199.483 52.5985 199.7 52.392C199.917 52.1854 200.388 51.7798 200.746 51.4906C201.103 51.2014 201.842 50.5905 202.388 50.1332C202.933 49.6758 203.957 48.8645 204.662 48.3304C205.368 47.7962 205.979 47.3254 206.021 47.2841C206.235 47.0701 207.539 46.0948 208.133 45.7039C208.507 45.458 208.846 45.2214 208.888 45.1781C208.929 45.135 209.133 45.0132 209.34 44.9076C209.548 44.8019 209.912 44.6099 210.15 44.481C210.485 44.2994 210.663 44.2835 210.942 44.4101C211.14 44.5 211.302 44.6389 211.302 44.7189C211.302 45.0476 212.441 46.7659 213.064 47.378C213.454 47.7603 214.282 48.3004 215.046 48.6697L216.357 49.3044L218.168 49.3083C219.585 49.3113 220.077 49.2575 220.431 49.0609C220.68 48.9227 221.211 48.6522 221.61 48.4599C222.725 47.9224 223.141 47.6977 223.223 47.5877C223.291 47.4963 224.302 46.7814 225.775 45.7817C226.079 45.5752 226.496 45.2574 226.7 45.0757C226.904 44.894 227.682 44.3664 228.429 43.9032C229.176 43.4402 229.855 42.9735 229.939 42.8659C230.022 42.7585 230.243 42.6224 230.429 42.5635C230.616 42.5046 230.768 42.3934 230.768 42.3163C230.768 42.2393 230.853 42.1747 230.957 42.1729C231.061 42.1711 231.315 42.0374 231.523 41.8757C232.002 41.5025 232.277 41.4967 232.277 41.8596C232.277 42.016 232.192 42.1777 232.088 42.2187C231.985 42.2599 231.767 42.5543 231.606 42.8733C231.444 43.1922 231.235 43.5546 231.141 43.6785C230.508 44.5141 230.307 46.278 230.662 47.885C230.873 48.8463 231.716 50.0802 232.277 50.2498C232.485 50.3125 233.469 50.3523 234.465 50.3381C235.959 50.317 236.481 50.2449 237.445 49.9268C238.087 49.7147 238.732 49.4734 238.878 49.3906C239.024 49.308 239.881 48.8995 240.782 48.4832C241.683 48.0668 242.714 47.5253 243.073 47.2797C243.431 47.0342 243.764 46.8334 243.813 46.8334C243.991 46.8334 245.556 45.7352 245.556 45.6102C245.556 45.5393 245.629 45.4813 245.718 45.4813C245.806 45.4813 246.175 45.2785 246.537 45.0306C246.899 44.7827 247.268 44.5799 247.357 44.5799C247.445 44.5799 247.518 44.5237 247.518 44.455C247.518 44.3864 247.705 44.2359 247.933 44.1206C249.038 43.5627 250.577 42.4077 250.937 41.8664C251.278 41.3536 251.311 41.2132 251.163 40.8912C250.852 40.2102 250.271 40.2189 249.242 40.9199C248.406 41.4902 246.147 42.4634 243.896 43.2236C242.771 43.6037 240.767 43.8254 239.905 43.665C239.045 43.5051 238.617 43.1934 238.275 42.4795C237.648 41.1687 238.239 39.4247 239.827 37.8946C241.882 35.9151 242.682 35.0741 242.769 34.8007C242.819 34.6432 242.924 34.5143 243.001 34.5143C243.078 34.5143 243.142 34.392 243.142 34.2426C243.142 34.0931 243.236 33.8426 243.351 33.6859C243.625 33.3134 243.499 31.8214 243.119 30.9338C242.664 29.872 242.744 29.3955 243.448 28.9631C244.236 28.4788 244.227 28.1032 243.406 27.2638C242.702 26.5439 242.198 26.1984 241.654 26.0606C241.141 25.931 237.208 26.2077 236.05 26.4547C234.5 26.785 232.31 27.3787 231.673 27.6406C231.466 27.7259 231.059 27.85 230.768 27.9163C230.317 28.0193 226.623 29.2708 225.713 29.6292C225.547 29.6946 224.442 30.2121 223.257 30.7791C222.072 31.3462 221.037 31.8102 220.956 31.8102C220.875 31.8102 220.809 31.8778 220.809 31.9604C220.809 32.043 220.724 32.1108 220.62 32.1111C220.516 32.1112 220.05 32.3405 219.584 32.6205C219.117 32.9004 218.574 33.1798 218.376 33.2413C218.179 33.3027 217.983 33.3945 217.942 33.4454C217.835 33.5755 217.384 33.8467 216.508 34.3073C216.093 34.5255 215.72 34.7491 215.678 34.8044C215.637 34.8597 215.161 35.1877 214.622 35.5334C213.049 36.5411 212.604 36.8601 211.863 37.5094C211.262 38.0362 210.409 39.3685 210.299 39.9511C210.089 41.0627 209.156 42.6037 208.681 42.6219C208.61 42.6246 208.066 42.9478 207.474 43.3399C206.882 43.7321 206.126 44.1846 205.794 44.3457C205.462 44.5066 205.157 44.6759 205.115 44.7217C205.074 44.7677 204.666 44.9915 204.21 45.2191C202.982 45.8315 201.507 46.6534 201.033 46.9889C200.804 47.1513 200.553 47.2841 200.475 47.2841C200.397 47.2841 200.21 47.4193 200.06 47.5845C199.91 47.7498 199.701 47.885 199.596 47.885C199.492 47.885 199.383 47.9392 199.356 48.0053C199.303 48.1317 196.076 50.2668 195.185 50.7653C194.504 51.1461 194.383 50.9932 194.956 50.4756C195.207 50.2489 195.602 49.776 195.832 49.4249C196.063 49.0738 196.311 48.7864 196.383 48.7864C196.455 48.7864 196.514 48.6907 196.514 48.5735C196.514 48.4565 196.565 48.3382 196.627 48.3106C196.689 48.2831 196.941 47.993 197.187 47.666C197.716 46.9617 198.461 46.169 201.43 43.1527C202.65 41.9133 204.127 40.3584 204.711 39.6973C205.296 39.0363 205.829 38.4729 205.897 38.4455C205.965 38.4178 206.021 38.3341 206.021 38.2592C206.021 38.1844 206.798 37.3492 207.748 36.4034C209.51 34.6489 210.115 33.8695 210.303 33.111C210.378 32.811 210.478 32.7103 210.639 32.7721C210.816 32.8394 210.846 32.7876 210.77 32.5493C210.716 32.3785 210.758 32.0284 210.865 31.7714C211.008 31.4289 211.014 31.2888 210.888 31.2469C210.793 31.2155 210.752 31.0947 210.797 30.9786C210.842 30.8623 210.736 30.5873 210.562 30.3672C210.388 30.1469 210.246 29.8759 210.246 29.7646C210.246 29.1647 207.984 29.3085 206.586 29.9973C206.026 30.2734 205.568 30.5577 205.568 30.6289C205.568 30.7002 205.5 30.7585 205.418 30.7585C205.274 30.7585 203.161 32.2458 202.424 32.866C202.23 33.029 202.009 33.1622 201.933 33.1622C201.857 33.1622 201.795 33.2207 201.795 33.292C201.795 33.3634 201.507 33.6167 201.154 33.855C200.801 34.0932 200.479 34.3291 200.437 34.3791C200.246 34.6096 197.708 36.4674 197.584 36.4674C197.507 36.4674 197.422 36.518 197.394 36.58C197.335 36.713 196.415 37.3687 196.288 37.3687C196.24 37.3687 195.847 37.6054 195.416 37.8946C194.984 38.1838 194.583 38.4204 194.524 38.4204C194.465 38.4204 194.124 38.6064 193.767 38.8335C193.411 39.0607 192.983 39.3326 192.817 39.4374C192.651 39.5425 192.311 39.7311 192.062 39.8569C191.813 39.9826 191.202 40.3193 190.704 40.6049C188.056 42.124 184.865 43.4332 183.461 43.5762C182.476 43.6767 181.726 43.3513 181.726 42.8238C181.726 41.9759 183.753 39.3218 184.401 39.3218C184.608 39.3218 186.806 38.0555 187.269 37.6692C187.418 37.5453 187.724 37.3486 187.95 37.232C188.176 37.1156 188.494 36.8958 188.658 36.7438C188.822 36.5917 188.996 36.4674 189.044 36.4674C189.329 36.4674 192.412 33.9256 193.362 32.9082C194.831 31.3338 195.05 29.6346 193.881 28.8721C193.395 28.5546 191.281 28.4172 190.542 28.6547C189.899 28.8614 187.584 29.9721 187.46 30.1334C187.419 30.1879 187.113 30.3666 186.781 30.5302C186.449 30.6938 186.007 30.9403 185.8 31.0782C185.592 31.2161 184.947 31.6386 184.366 32.017C182.796 33.0395 181.878 33.6893 181.439 34.0878C181.223 34.2837 180.508 34.916 179.85 35.4932C179.192 36.0703 178.22 36.9908 177.692 37.5388C176.77 38.4937 175.539 40.1943 175.539 40.5121C175.539 40.5954 175.428 40.9195 175.291 41.2321C175.155 41.5448 174.972 41.9696 174.883 42.1762C174.666 42.6852 174.172 43.2278 173.928 43.2278C173.818 43.2278 173.728 43.2814 173.728 43.3469C173.728 43.4126 173.439 43.5524 173.087 43.6579C171.432 44.1528 170.989 44.2778 169.6 44.6412C167.656 45.1499 166.796 45.1443 165.732 44.6158C164.686 44.0966 164.499 43.7436 164.556 42.3963C164.61 41.1336 164.559 41.2079 167.257 38.4608C169.537 36.1395 169.874 35.5577 169.763 34.1306C169.725 33.6304 169.626 33.0895 169.544 32.9288C169.463 32.768 169.297 32.3283 169.177 31.9518C168.966 31.2924 168.97 31.2579 169.296 31.0129C169.483 30.873 169.703 30.7585 169.787 30.7585C169.978 30.7585 170.408 30.157 170.408 29.889C170.408 29.5821 168.8 28.0731 168.355 27.9617C167.701 27.7983 164.689 28.0162 163.165 28.3372C160.444 28.9101 155.121 30.512 154.155 31.0488C154.006 31.1313 153.545 31.3386 153.13 31.5097C152.715 31.6808 152.24 31.8973 152.074 31.9907C151.908 32.0843 150.889 32.6127 149.81 33.1649C146.339 34.942 145 35.678 143.699 36.5246C140.655 38.5056 139.612 39.4594 138.891 40.9217C137.856 43.0199 137.882 42.9843 137.19 43.2437C136.828 43.3795 135.704 43.7357 134.693 44.0353C132.965 44.5476 132.08 44.7005 132.08 44.4869C132.08 44.1867 133.314 42.4592 134.266 41.4271C134.877 40.7644 135.696 39.7323 136.086 39.1335C136.476 38.5347 136.922 37.8617 137.078 37.6377C137.234 37.4138 137.361 37.1915 137.361 37.1435C137.361 37.0956 137.599 36.705 137.889 36.2757C138.18 35.8461 138.417 35.4151 138.417 35.3176C138.417 35.2201 138.471 35.1178 138.536 35.0902C138.721 35.0121 139.997 32.7437 140.465 31.6599C140.697 31.1228 140.934 30.6158 140.993 30.5332C141.052 30.4505 141.388 29.7069 141.74 28.8806C142.345 27.4587 142.578 26.9333 143.473 24.9746C144.773 22.1265 144.936 21.7018 145.497 19.7165C146.045 17.7761 146.134 15.8463 145.719 14.8766C144.848 12.8381 144.634 12.6599 142.452 12.1481C141.642 11.9582 139.143 11.9463 138.568 12.1297ZM63.5711 16.9259C66.2983 17.1726 68.8378 17.6849 70.2862 18.2805C71.1018 18.616 73.0084 19.5796 73.0526 19.6789C73.0804 19.7409 73.1619 19.7916 73.2337 19.7916C73.4772 19.7916 74.8104 20.7371 75.2791 21.2424C75.5355 21.5186 75.8071 21.745 75.8827 21.7456C76.0594 21.747 76.632 22.589 76.8518 23.1707C77.0044 23.5746 76.982 23.6543 76.6342 23.9523C76.421 24.1348 76.2458 24.338 76.2449 24.404C76.2432 24.511 75.9049 24.7682 74.8026 25.5004C74.6161 25.6243 74.1951 25.9436 73.8672 26.2099C73.5393 26.4763 73.2275 26.651 73.1744 26.5981C73.1213 26.5453 73.0778 26.6147 73.0778 26.7523C73.0778 26.89 72.976 27.0027 72.8515 27.0027C72.727 27.0027 72.6251 27.0624 72.6251 27.1354C72.6251 27.2084 72.1667 27.6495 71.6065 28.1156C71.0464 28.5818 70.2623 29.2658 69.8644 29.6355C69.4665 30.0053 69.0907 30.3078 69.0298 30.3078C68.9687 30.3078 68.5721 30.6289 68.1485 31.0214C66.9511 32.1309 66.2517 32.7115 66.1127 32.7115C66.0427 32.7115 65.9855 32.7791 65.9855 32.8618C65.9855 32.9444 65.912 33.012 65.8223 33.012C65.6754 33.012 64.8545 33.6295 63.9253 34.4392C62.6259 35.5714 62.166 35.9734 61.9056 36.2044C61.7427 36.349 61.5488 36.4674 61.4747 36.4674C61.4006 36.4674 61.3008 36.5688 61.253 36.6927C61.2053 36.8166 61.1115 36.918 61.0446 36.918C60.9227 36.918 59.4894 38.1546 58.3892 39.2091C58.066 39.519 57.7245 39.7725 57.6305 39.7725C57.5367 39.7725 57.2712 40.0076 57.0409 40.2948C56.8107 40.5822 56.1523 41.1663 55.5777 41.5931C54.8879 42.1054 54.5176 42.4879 54.4874 42.7193C54.4584 42.9416 54.3777 43.0298 54.2665 42.9604C54.1409 42.882 54.1311 42.6598 54.2319 42.1756C54.3094 41.804 54.4103 41.2297 54.4565 40.8992C54.5025 40.5687 54.5977 40.1631 54.668 39.9978C54.7384 39.8326 54.9018 39.0213 55.0311 38.195C55.1604 37.3687 55.3718 36.1519 55.5009 35.4908C55.7269 34.3318 55.9951 32.8308 56.4001 30.4581C56.5059 29.8384 56.6681 29.0271 56.7607 28.6553C56.8532 28.2834 57.0634 27.2694 57.2279 26.4018C57.3924 25.5342 57.672 24.1821 57.8493 23.3971C58.0266 22.6122 58.2261 21.6175 58.2924 21.1868C58.4283 20.3043 58.8148 18.6151 59.1575 17.4054L59.3867 16.5969L60.6112 16.683C61.2847 16.7303 62.6167 16.8395 63.5711 16.9259ZM238.011 31.5522C238.011 31.6581 237.658 32.0468 237.226 32.416C236.794 32.7852 236.319 33.2055 236.17 33.35C236.021 33.4946 235.868 33.6129 235.832 33.6129C235.795 33.6129 235.506 33.8539 235.19 34.1485C234.875 34.4433 234.209 34.9976 233.711 35.3809C233.213 35.764 232.364 36.4424 231.824 36.8885C231.285 37.3346 230.707 37.811 230.539 37.9473C229.055 39.1562 228.528 39.5941 228.204 39.885C227.998 40.071 227.749 40.2232 227.651 40.2232C227.553 40.2232 227.451 40.2738 227.423 40.3358C227.395 40.3979 227.101 40.6492 226.769 40.8947C226.437 41.14 226.098 41.3975 226.015 41.4669C225.563 41.844 223.487 43.0603 222.77 43.3671C222.314 43.5627 221.726 43.814 221.465 43.9259C221.203 44.0377 220.855 44.1292 220.692 44.1292C220.528 44.1292 220.105 44.2306 219.752 44.3545C218.778 44.6969 217.917 44.6475 217.418 44.2207C217.187 44.0233 217.041 43.7924 217.094 43.7078C217.146 43.6232 217.119 43.5308 217.034 43.5026C216.928 43.4674 216.928 43.1957 217.032 42.6476C217.116 42.2058 217.148 41.7836 217.102 41.7097C217.056 41.6358 217.132 41.5752 217.271 41.5752C217.45 41.5752 217.501 41.4869 217.445 41.276C217.386 41.0512 217.636 40.7146 218.446 39.9239C219.039 39.3449 219.605 38.8711 219.703 38.8711C219.801 38.8711 220.039 38.6765 220.232 38.4385C220.548 38.0488 221.8 37.3349 223.223 36.7334C223.514 36.6105 224.064 36.3652 224.447 36.1882C224.829 36.0112 225.203 35.8658 225.277 35.8651C225.351 35.8643 225.751 35.6974 226.166 35.4941C226.581 35.2909 227.035 35.1225 227.175 35.1199C227.316 35.1174 227.467 35.0559 227.512 34.9835C227.557 34.9111 227.986 34.6988 228.464 34.5119C228.943 34.325 229.606 34.0549 229.938 33.9118C231.483 33.245 231.694 33.1622 231.844 33.1622C231.933 33.1622 232.219 33.0673 232.481 32.9512C233.266 32.6022 234.878 32.1106 235.236 32.1106C235.421 32.1106 235.594 32.0534 235.622 31.9834C235.673 31.8554 237.254 31.4023 237.747 31.3743C237.893 31.3662 238.011 31.4461 238.011 31.5522ZM164.773 33.3475C164.567 33.5348 163.839 34.1951 163.154 34.8148C162.47 35.4345 161.802 36.0472 161.67 36.1762C161.538 36.3053 161.093 36.6771 160.681 37.0025C160.27 37.3279 159.822 37.6955 159.686 37.8194C159.55 37.9434 158.902 38.4842 158.246 39.0213C157.59 39.5584 156.816 40.2257 156.525 40.5044C155.916 41.0894 154.162 42.3982 153.281 42.9257C152.949 43.1244 152.643 43.3277 152.602 43.3774C152.494 43.5072 149.811 44.7869 148.83 45.1769C148.373 45.3584 147.777 45.6025 147.504 45.7194C147.231 45.8363 146.679 45.932 146.277 45.932C145.654 45.932 145.476 45.8612 145.075 45.4527C144.705 45.0758 144.604 44.8432 144.604 44.3636C144.601 41.8856 147.669 39.2566 153.13 37.0573C153.628 36.8568 154.058 36.6421 154.086 36.58C154.114 36.518 154.239 36.4674 154.364 36.4674C154.49 36.4674 154.773 36.3683 154.993 36.2474C155.213 36.1265 156.005 35.7862 156.752 35.491C157.499 35.1959 158.246 34.8905 158.412 34.8124C158.578 34.7341 159.341 34.464 160.107 34.2121C160.874 33.9603 161.813 33.6209 162.195 33.4582C162.576 33.2953 163.025 33.1622 163.192 33.1622C163.36 33.1622 163.711 33.0655 163.972 32.9471C165.027 32.47 165.486 32.6994 164.773 33.3475Z" fill="black"/>
</svg>
